PathFileType	4	(X/Y/Z)	s02c0201.trc
DataRate	CameraRate	NumFrames	NumMarkers	Units	OrigDataRate	OrigDataStartFrame	OrigNumFrames
200	200	6	51	mm	200	1500	2000
Frame#	Time	racr			lacr			c7			jug			rlel			rdr			llel			ldr			s2			lic			ric			lasi			rasi			rpsi			lpsi			rgt			lgt			rth1			rth2			rth3			rth4			rlfc			rmfc			rsh1			rsh2			rsh3			rsh4			rlmal			rmmal			rcal			rtoe			rmt5			rmt1			lth1			lth2			lth4			lth3			llfc			lmfc			lsh1			lsh2			lsh3			lsh4			llmal			lmmal			lcal			ltoe			lmt5			SBIKE			LBIKE			RBIKE			
		X1	Y1	Z1	X2	Y2	Z2	X3	Y3	Z3	X4	Y4	Z4	X5	Y5	Z5	X6	Y6	Z6	X7	Y7	Z7	X8	Y8	Z8	X9	Y9	Z9	X10	Y10	Z10	X11	Y11	Z11	X12	Y12	Z12	X13	Y13	Z13	X14	Y14	Z14	X15	Y15	Z15	X16	Y16	Z16	X17	Y17	Z17	X18	Y18	Z18	X19	Y19	Z19	X20	Y20	Z20	X21	Y21	Z21	X22	Y22	Z22	X23	Y23	Z23	X24	Y24	Z24	X25	Y25	Z25	X26	Y26	Z26	X27	Y27	Z27	X28	Y28	Z28	X29	Y29	Z29	X30	Y30	Z30	X31	Y31	Z31	X32	Y32	Z32	X33	Y33	Z33	X34	Y34	Z34	X35	Y35	Z35	X36	Y36	Z36	X37	Y37	Z37	X38	Y38	Z38	X39	Y39	Z39	X40	Y40	Z40	X41	Y41	Z41	X42	Y42	Z42	X43	Y43	Z43	X44	Y44	Z44	X45	Y45	Z45	X46	Y46	Z46	X47	Y47	Z47	X48	Y48	Z48	X49	Y49	Z49	X50	Y50	Z50	X51	Y51	Z51	
1500	7.5000	558.056822	1218.117073	-184.505635	563.907793	1217.772944	-493.034590	535.996794	1264.707142	-341.261233	503.407122	1125.353071	-342.167877	534.395410	989.630379	-51.830313	695.892659	884.376520	-120.581890	511.107757	974.336798	-634.038946	687.987028	885.955599	-536.037393	1.458841	1114.081999	-341.720395	137.500379	1108.293131	-484.853384	124.739116	1133.651899	-200.116294	174.802840	1075.982939	-457.322418	176.699680	1106.329887	-223.846894	31.596350	1168.190615	-301.714021	37.104855	1177.107437	-384.994518	117.719280	1070.671601	-151.394700	77.517749	1008.208565	-504.854745	198.226249	1059.693624	-155.189230	285.713421	1059.476300	-163.782188	361.926019	1028.588542	-139.203556	292.572214	1081.816418	-194.124586	491.913177	956.245327	-171.436924	480.901743	930.772379	-285.357929	458.458807	852.540230	-157.245852	422.653507	772.656185	-172.943200	355.516130	718.502205	-167.528132	434.241425	765.827440	-211.068342	269.295508	628.018276	-169.264045	285.979405	638.302613	-249.838811	184.109308	614.909990	-212.721909	432.173108	473.357458	-192.103452	326.671913	514.847023	-141.177870	360.627880	507.385917	-245.707801	164.555268	895.977941	-527.647641	220.826506	829.274160	-530.363723	252.919955	844.455063	-518.292266	234.862582	741.334934	-525.975835	280.665850	653.311490	-501.825107	289.206299	625.417284	-400.863383	260.652801	553.130708	-521.947210	269.449868	468.705792	-507.159582	230.269991	386.412447	-504.921698	289.982846	468.491683	-471.300276	204.422818	285.292246	-489.733077	218.723468	281.628733	-412.641675	131.985908	264.432709	-451.341386	385.687767	126.143671	-438.667872	283.728181	150.411082	-506.010815	-165.429871	857.058713	-317.314840	33.148442	82.223749	-515.532718	32.895476	82.266770	-115.223502	
1501	7.5050	557.182632	1217.420994	-183.110331	565.193896	1216.360652	-490.758603	536.341555	1263.713725	-339.288344	503.437210	1124.428582	-340.288366	533.986522	988.815926	-51.660890	695.685133	884.422261	-120.541869	511.692587	974.731577	-634.296363	687.994661	885.794397	-536.568635	0.566699	1115.213645	-340.358573	137.116300	1109.657670	-485.629720	124.510709	1135.480357	-200.930460	173.657077	1077.232804	-457.382846	176.475359	1108.154238	-224.567474	31.617949	1170.317455	-302.626254	36.692541	1179.691277	-385.851634	117.414113	1073.211065	-151.994436	76.783111	1009.292584	-505.528205	197.676391	1061.176087	-155.640942	285.166938	1060.032072	-163.592353	360.854095	1028.286284	-138.424237	292.545605	1082.560331	-193.665833	491.070101	956.538066	-170.536549	481.123570	930.948745	-284.734922	459.360421	852.701263	-156.263545	425.106343	772.110233	-171.896347	358.883822	716.948673	-166.828876	437.078460	765.343018	-209.880752	274.052297	623.827023	-169.039401	290.241901	634.522294	-249.490756	188.697400	607.670969	-212.199774	442.273362	476.343967	-192.240016	335.247206	513.430881	-140.743839	370.198303	507.443335	-246.166442	163.826955	897.054947	-528.128854	220.183734	830.472450	-530.917695	252.269603	845.641833	-518.932751	234.313911	742.561061	-526.610352	280.356714	654.615377	-502.186814	289.311435	627.038700	-400.979055	259.008957	554.750845	-522.077368	265.722222	470.129737	-506.928194	224.798815	388.809575	-504.656215	286.430261	469.564819	-471.232077	196.573354	288.386743	-489.370394	211.190620	284.283387	-412.127255	123.816619	268.545042	-450.748728	375.159173	126.388951	-438.738390	273.459242	152.149734	-505.802153	-165.431452	857.652332	-315.636546	33.138249	82.227233	-515.540408	32.890338	82.286783	-115.213299	
1502	7.5100	556.351551	1216.437033	-181.690320	566.399896	1214.847437	-488.552786	536.608316	1262.722709	-337.438170	503.292334	1123.531738	-338.696667	533.478984	987.842830	-51.478258	695.434300	884.443395	-120.532661	512.138529	975.075431	-634.659485	688.055084	885.648376	-536.799977	1.485760	1117.795063	-344.189056	136.550937	1111.128666	-486.404556	124.502792	1137.236884	-201.689584	173.031475	1078.273727	-458.189532	176.324868	1109.901608	-225.149973	31.586223	1172.454534	-303.569714	36.803329	1182.398248	-386.845924	117.344830	1075.049916	-152.806586	76.223742	1010.395522	-506.179704	197.248915	1062.218996	-155.972251	284.795325	1060.171879	-163.190183	359.935120	1027.290067	-137.732038	292.642848	1082.858800	-193.075778	490.146343	955.574350	-169.789100	481.079282	929.794468	-283.981344	459.685758	851.352572	-155.283569	426.860431	770.156556	-170.740331	361.424590	713.860855	-165.906744	439.249366	763.445041	-208.683508	278.315757	618.468784	-168.659218	293.978158	629.631503	-248.958313	193.104231	599.182941	-211.867252	451.892887	479.041372	-192.252632	343.311969	511.201624	-140.015772	377.997825	507.194133	-245.186206	163.510926	898.337283	-528.542877	220.089853	831.970431	-531.330790	251.994276	847.275072	-519.301122	234.591778	744.142693	-527.019403	280.825532	656.297696	-502.524792	290.226784	628.897949	-401.185851	258.019902	556.790671	-522.036788	262.269285	471.792314	-505.962200	219.865193	391.747263	-504.434686	283.392115	471.035461	-470.900661	188.857165	292.127857	-488.877562	203.557658	287.701132	-411.653393	115.755151	273.399853	-450.131995	364.731829	127.289423	-438.839109	263.313135	154.515767	-505.575097	-165.402225	857.629191	-315.659658	33.148529	82.230937	-515.541812	32.366599	82.728652	-115.285407	
1503	7.5150	555.468996	1215.617571	-180.144128	567.401526	1213.329715	-486.493004	536.873221	1261.766626	-335.850586	502.921750	1122.723876	-337.149957	532.560315	986.983624	-51.111655	695.158626	884.429706	-120.468465	512.597390	975.321002	-635.112918	688.029527	885.530168	-536.879036	1.220284	1119.490856	-344.631861	136.079414	1112.466375	-487.045204	124.516196	1138.894214	-202.384138	172.170580	1079.407743	-458.795593	176.152519	1111.525117	-225.816004	31.640533	1174.417072	-304.275205	37.022340	1185.245641	-387.702624	117.213463	1076.551766	-153.673436	75.588263	1011.715469	-506.687841	196.938589	1062.985953	-156.194540	284.603343	1059.780121	-162.752435	359.140665	1025.579152	-137.125353	292.907063	1082.511600	-192.431475	489.137417	953.419563	-169.222257	480.701287	927.116889	-283.306956	459.321267	848.570614	-154.227274	427.985155	766.704439	-169.462248	363.375692	709.382902	-165.161212	440.805643	760.116942	-207.266224	282.188385	612.139478	-168.205114	297.577306	623.329491	-248.539745	197.222688	589.330938	-210.984998	461.169395	481.565765	-192.325146	351.059256	508.004000	-138.968914	385.820055	506.393034	-244.631638	163.616568	899.827989	-528.868942	220.592889	833.707886	-531.577788	252.434065	849.248173	-519.652543	235.629339	745.989765	-527.288810	282.189231	658.407298	-502.814152	291.931395	631.204636	-401.268570	257.707073	559.224807	-522.008202	259.107785	474.192799	-505.177424	215.351063	395.312508	-504.048111	280.879747	472.897423	-470.669478	181.444963	296.572850	-488.429933	196.441954	291.747521	-411.155942	108.035767	278.904397	-449.311133	354.407359	128.756839	-438.896919	253.269603	157.606536	-505.288491	-165.435413	857.749710	-315.184037	33.119668	82.260954	-515.530388	32.882174	82.287463	-115.211332	
1504	7.5200	554.578814	1214.575585	-178.773405	568.278721	1211.810323	-484.561197	537.084340	1260.929823	-334.231465	502.194853	1122.116817	-335.839294	531.931253	985.946863	-50.635040	694.855883	884.393726	-120.427847	512.969852	975.462245	-635.576069	687.984218	885.449928	-536.935405	0.986974	1121.105852	-345.087804	135.593204	1114.316360	-487.721646	124.386106	1140.231574	-203.155331	171.549020	1080.404119	-459.542309	176.054669	1112.920438	-226.457294	31.699455	1176.452117	-304.951489	37.222041	1187.907241	-388.530083	117.089106	1077.872934	-154.542484	75.179415	1012.982603	-507.374915	196.884110	1063.189831	-156.044776	284.480072	1058.540379	-162.442591	358.353403	1022.985852	-136.761713	293.343644	1081.318584	-191.844941	487.970583	949.692511	-168.868804	479.714720	923.177967	-282.432674	458.823664	844.123088	-153.426409	428.575542	761.735647	-168.369840	364.844925	703.549959	-164.188568	441.887831	755.220530	-205.828533	285.769481	604.654857	-167.689709	300.393546	616.138973	-248.145228	201.288569	578.111730	-210.075363	470.088669	483.504913	-191.783800	358.748037	503.754295	-138.108325	393.494164	504.830712	-244.123978	164.072437	901.412051	-529.132071	221.605266	835.785211	-531.740593	253.286663	851.526300	-519.815738	237.394865	748.164828	-527.493337	284.306281	660.810284	-503.038601	294.292296	633.814516	-401.377061	258.143409	562.068487	-521.906140	257.216709	477.121408	-504.998200	211.267244	399.419650	-503.698957	278.950856	475.306157	-470.376988	174.406535	301.716691	-487.876100	189.514517	296.411839	-410.646280	100.315485	285.244830	-448.742905	344.224967	130.890866	-438.978674	243.306856	161.308254	-504.927953	-165.514065	857.114417	-317.258424	33.116495	82.319311	-515.517476	32.361076	82.724904	-115.251648	
1505	7.5250	553.738837	1213.776763	-177.284806	569.051773	1210.331066	-482.809255	537.234545	1260.160286	-332.817970	501.591089	1121.534258	-334.532985	531.344557	984.851704	-50.156985	694.554881	884.349370	-120.315415	513.302574	975.599392	-636.039929	687.935304	885.367409	-536.964743	1.186637	1121.353865	-342.101584	135.103521	1115.619964	-488.264888	124.388953	1141.407578	-203.953353	170.878360	1081.463091	-460.277356	176.083441	1113.969726	-226.991021	31.927297	1178.218163	-305.372181	37.310798	1190.292085	-389.242464	116.783075	1079.091247	-155.479129	74.724325	1014.264711	-507.978473	196.949537	1062.739349	-155.932077	284.468813	1056.518186	-162.292421	357.851196	1019.649426	-136.673359	293.723624	1079.002916	-191.770700	485.073495	943.645448	-167.330022	478.118335	917.952519	-281.340729	457.590341	838.704400	-152.415732	428.724223	755.682454	-167.394071	365.848611	696.441664	-163.270109	442.382359	749.272297	-204.612184	288.829773	596.190410	-167.281017	302.690245	607.923302	-247.773740	205.338397	565.683289	-209.092617	478.290975	484.502388	-191.642887	366.111348	499.037658	-137.124235	400.658750	502.432225	-243.448666	164.896272	902.985486	-529.359334	223.145105	838.051863	-531.786136	254.605721	854.120648	-519.920408	239.878015	750.577029	-527.585320	287.318395	663.597444	-503.275635	297.562913	636.235125	-401.868665	259.236967	565.231085	-521.913491	255.799196	480.359001	-504.672436	207.753747	404.055923	-503.262963	277.523627	478.062862	-470.120339	167.615494	307.498508	-487.317923	183.020533	301.819228	-410.107462	93.369823	292.099924	-447.576472	334.257639	133.615412	-439.102342	233.575435	165.667581	-504.570963	-165.402463	857.863992	-314.989554	33.140322	82.348922	-515.522879	32.374880	82.751133	-115.226795	
